<?xml version="1.0" encoding="iso-8859-1"?>
<!-- Generator: Adobe Illustrator 17.1.0, SVG Export Plug-In . SVG Version: 6.00 Build 0)  -->
<!DOCTYPE svg PUBLIC "-//W3C//DTD SVG 1.1//EN" "http://www.w3.org/Graphics/SVG/1.1/DTD/svg11.dtd">
<svg version="1.1" id="Layer_1" xmlns="http://www.w3.org/2000/svg" xmlns:xlink="http://www.w3.org/1999/xlink" x="0px" y="0px"
	 viewBox="0 0 32 32" style="enable-background:new 0 0 32 32;" xml:space="preserve">
<path style="fill:#231F20;" d="M15.5,12.5c0.276,0,0.5-0.224,0.5-0.5V8c0-0.276-0.224-0.5-0.5-0.5C15.224,7.5,15,7.724,15,8v4
	C15,12.276,15.224,12.5,15.5,12.5z"/>
<path style="fill:#231F20;" d="M26.253,12.29l-2.828,2.828c-0.195,0.195-0.195,0.512,0,0.707c0.098,0.098,0.226,0.146,0.354,0.146
	c0.128,0,0.256-0.049,0.354-0.146l2.828-2.828c0.195-0.195,0.195-0.512,0-0.707C26.765,12.095,26.448,12.095,26.253,12.29z"/>
<path style="fill:#231F20;" d="M5.04,12.29c-0.195,0.195-0.195,0.512,0,0.707l2.828,2.828c0.098,0.098,0.226,0.146,0.354,0.146
	c0.128,0,0.256-0.049,0.353-0.146c0.195-0.195,0.195-0.512,0-0.707L5.747,12.29C5.552,12.095,5.235,12.095,5.04,12.29z"/>
<path style="fill:#231F20;" d="M29,23h-5.013c-0.134-4.295-3.661-7.75-7.987-7.75c-4.327,0-7.854,3.455-7.987,7.75H3
	c-0.276,0-0.5,0.224-0.5,0.5S2.724,24,3,24h26c0.276,0,0.5-0.224,0.5-0.5S29.276,23,29,23z M16,16.25
	c3.775,0,6.854,3.007,6.987,6.75H9.013C9.146,19.257,12.224,16.25,16,16.25z"/>
</svg>
