<?xml version="1.0" encoding="iso-8859-1"?>
<!-- Generator: Adobe Illustrator 17.1.0, SVG Export Plug-In . SVG Version: 6.00 Build 0)  -->
<!DOCTYPE svg PUBLIC "-//W3C//DTD SVG 1.1//EN" "http://www.w3.org/Graphics/SVG/1.1/DTD/svg11.dtd">
<svg version="1.1" id="Layer_1" xmlns="http://www.w3.org/2000/svg" xmlns:xlink="http://www.w3.org/1999/xlink" x="0px" y="0px"
	 viewBox="0 0 32 32" style="enable-background:new 0 0 32 32;" xml:space="preserve">
<path style="fill:#231F20;" d="M26.323,7.005c-0.276,0-0.5,0.224-0.5,0.5s0.224,0.5,0.5,0.5c1.254,0,2.096,1.295,2.096,2.505
	c0,1.303-1.062,2.49-2.228,2.49H14c-0.276,0-0.5,0.224-0.5,0.5S13.724,14,14,14h12.191c1.72,0,3.228-1.631,3.228-3.49
	C29.419,8.817,28.175,7.005,26.323,7.005z"/>
<path style="fill:#231F20;" d="M25.323,21.042c-0.276,0-0.5,0.224-0.5,0.5s0.224,0.5,0.5,0.5c1.707,0,3.096-1.552,3.096-3.459
	c0-1.691-1.38-3.583-3.228-3.583H8c-0.276,0-0.5,0.224-0.5,0.5S7.724,16,8,16h17.191c1.255,0,2.228,1.388,2.228,2.583
	C27.419,19.77,26.577,21.042,25.323,21.042z"/>
<path style="fill:#231F20;" d="M11.638,18.158c-0.197-0.193-0.513-0.192-0.707,0.006l-2.937,2.985
	c-0.142,0.144-0.183,0.358-0.105,0.544C7.968,21.879,8.149,22,8.351,22h1.264l-2.306,2.287c-0.195,0.194-0.197,0.511-0.002,0.707
	c0.098,0.099,0.226,0.148,0.354,0.148c0.127,0,0.255-0.048,0.353-0.145l3.167-3.142c0.144-0.143,0.187-0.358,0.109-0.545
	C11.213,21.122,11.03,21,10.828,21H9.544l2.1-2.135C11.837,18.669,11.835,18.352,11.638,18.158z"/>
<path style="fill:#231F20;" d="M16.225,17.548l-2.497,2.497c-0.195,0.195-0.195,0.512,0,0.707c0.098,0.098,0.226,0.146,0.354,0.146
	c0.128,0,0.256-0.049,0.353-0.146l2.497-2.497c0.195-0.195,0.195-0.512,0-0.707C16.736,17.353,16.42,17.353,16.225,17.548z"/>
<path style="fill:#231F20;" d="M6.225,17.548l-2.497,2.497c-0.195,0.195-0.195,0.512,0,0.707c0.098,0.098,0.226,0.146,0.354,0.146
	c0.128,0,0.256-0.049,0.353-0.146l2.497-2.497c0.195-0.195,0.195-0.512,0-0.707C6.736,17.353,6.42,17.353,6.225,17.548z"/>
</svg>
