<?xml version="1.0" encoding="iso-8859-1"?>
<!-- Generator: Adobe Illustrator 17.1.0, SVG Export Plug-In . SVG Version: 6.00 Build 0)  -->
<!DOCTYPE svg PUBLIC "-//W3C//DTD SVG 1.1//EN" "http://www.w3.org/Graphics/SVG/1.1/DTD/svg11.dtd">
<svg version="1.1" id="Layer_1" xmlns="http://www.w3.org/2000/svg" xmlns:xlink="http://www.w3.org/1999/xlink" x="0px" y="0px"
	 viewBox="0 0 32 32" style="enable-background:new 0 0 32 32;" xml:space="preserve">
<path style="fill:#231F20;" d="M23,18H9c-0.276,0-0.5,0.224-0.5,0.5S8.724,19,9,19h14c0.276,0,0.5-0.224,0.5-0.5S23.276,18,23,18z"
	/>
<path style="fill:#231F20;" d="M23,16H9c-0.276,0-0.5,0.224-0.5,0.5S8.724,17,9,17h14c0.276,0,0.5-0.224,0.5-0.5S23.276,16,23,16z"
	/>
<path style="fill:#231F20;" d="M23,14H9c-0.276,0-0.5,0.224-0.5,0.5S8.724,15,9,15h14c0.276,0,0.5-0.224,0.5-0.5S23.276,14,23,14z"
	/>
</svg>
