<?xml version="1.0" encoding="iso-8859-1"?>
<!-- Generator: Adobe Illustrator 17.1.0, SVG Export Plug-In . SVG Version: 6.00 Build 0)  -->
<!DOCTYPE svg PUBLIC "-//W3C//DTD SVG 1.1//EN" "http://www.w3.org/Graphics/SVG/1.1/DTD/svg11.dtd">
<svg version="1.1" id="Layer_1" xmlns="http://www.w3.org/2000/svg" xmlns:xlink="http://www.w3.org/1999/xlink" x="0px" y="0px"
	 viewBox="0 0 32 32" style="enable-background:new 0 0 32 32;" xml:space="preserve">
<path style="fill:#231F20;" d="M8.5,16.5C8.776,16.5,9,16.276,9,16c0-3.86,3.14-7,7-7c3.859,0,7,3.14,7,7c0,0.276,0.224,0.5,0.5,0.5
	c0.276,0,0.5-0.224,0.5-0.5c0-4.411-3.589-8-8-8c-4.411,0-8,3.589-8,8C8,16.276,8.224,16.5,8.5,16.5z"/>
<path style="fill:#231F20;" d="M21.381,22.92c0.205-0.186,0.22-0.502,0.034-0.707c-0.186-0.204-0.502-0.219-0.706-0.034
	C19.418,23.354,17.746,24,16,24c-1.747,0-3.42-0.647-4.71-1.822c-0.203-0.185-0.52-0.171-0.706,0.033
	c-0.186,0.204-0.171,0.52,0.033,0.706C12.091,24.26,14.003,25,16,25C17.995,25,19.906,24.261,21.381,22.92z"/>
<path style="fill:#231F20;" d="M6,19h20c0.276,0,0.5-0.224,0.5-0.5S26.276,18,26,18H6c-0.276,0-0.5,0.224-0.5,0.5S5.724,19,6,19z"/>
<path style="fill:#231F20;" d="M23,20H9c-0.276,0-0.5,0.224-0.5,0.5S8.724,21,9,21h14c0.276,0,0.5-0.224,0.5-0.5S23.276,20,23,20z"
	/>
</svg>
