<?xml version="1.0" encoding="iso-8859-1"?>
<!-- Generator: Adobe Illustrator 17.1.0, SVG Export Plug-In . SVG Version: 6.00 Build 0)  -->
<!DOCTYPE svg PUBLIC "-//W3C//DTD SVG 1.1//EN" "http://www.w3.org/Graphics/SVG/1.1/DTD/svg11.dtd">
<svg version="1.1" id="Layer_1" xmlns="http://www.w3.org/2000/svg" xmlns:xlink="http://www.w3.org/1999/xlink" x="0px" y="0px"
	 viewBox="0 0 32 32" style="enable-background:new 0 0 32 32;" xml:space="preserve">
<path style="fill:#231F20;" d="M16,5.083c-3.978,0-11.5,0.63-11.5,3.015c0,2.385,7.522,3.015,11.5,3.015
	c3.977,0,11.5-0.63,11.5-3.015C27.5,5.713,19.977,5.083,16,5.083z M16,9.915c-3.014,0-4.785-0.502-5.204-0.817
	C11.214,8.782,12.986,8.28,16,8.28c3.014,0,4.786,0.502,5.204,0.818C20.785,9.414,19.014,9.915,16,9.915z M22,9.701
	c0.166-0.175,0.264-0.374,0.264-0.603c0-1.767-5.623-1.818-6.264-1.818c-0.641,0-6.264,0.051-6.264,1.818
	c0,0.229,0.098,0.428,0.264,0.603C7.062,9.253,5.5,8.541,5.5,8.098c0-0.683,3.706-2.015,10.5-2.015c6.794,0,10.5,1.331,10.5,2.015
	C26.5,8.541,24.938,9.253,22,9.701z"/>
<path style="fill:#231F20;" d="M25.301,12.623c-0.26-0.01-0.497,0.21-0.524,0.474c-0.044,0.447-2.811,1.621-8.778,1.621
	c-5.967,0-8.733-1.174-8.778-1.621c0-0.276-0.224-0.5-0.5-0.5c-0.276,0-0.5,0.224-0.5,0.5c0,2.073,6.396,2.621,9.778,2.621
	c3.382,0,9.778-0.548,9.778-2.621C25.778,12.832,25.567,12.637,25.301,12.623z"/>
<path style="fill:#231F20;" d="M21.165,18.098c0-0.276-0.224-0.5-0.5-0.5c-0.244,0-0.447,0.174-0.491,0.405
	c-0.27,0.238-1.725,0.661-4.174,0.661c-2.449,0-3.904-0.423-4.174-0.661c-0.045-0.231-0.248-0.405-0.491-0.405
	c-0.276,0-0.5,0.224-0.5,0.5c0,1.491,4.303,1.566,5.165,1.566C16.862,19.665,21.165,19.589,21.165,18.098z"/>
<path style="fill:#231F20;" d="M18.196,21.788L16,25.445l-2.19-3.648c-0.143-0.237-0.449-0.313-0.686-0.171
	c-0.237,0.142-0.313,0.449-0.171,0.686l2.619,4.362c0.09,0.15,0.253,0.243,0.429,0.243c0.176,0,0.338-0.092,0.429-0.243l2.625-4.371
	c0.142-0.237,0.066-0.544-0.171-0.686C18.645,21.474,18.337,21.551,18.196,21.788z"/>
</svg>
