<?xml version="1.0" encoding="iso-8859-1"?>
<!-- Generator: Adobe Illustrator 17.1.0, SVG Export Plug-In . SVG Version: 6.00 Build 0)  -->
<!DOCTYPE svg PUBLIC "-//W3C//DTD SVG 1.1//EN" "http://www.w3.org/Graphics/SVG/1.1/DTD/svg11.dtd">
<svg version="1.1" id="Layer_1" xmlns="http://www.w3.org/2000/svg" xmlns:xlink="http://www.w3.org/1999/xlink" x="0px" y="0px"
	 viewBox="0 0 32 32" style="enable-background:new 0 0 32 32;" xml:space="preserve">
<path style="fill:#231F20;" d="M9.621,26h12c3.033,0,5.5-2.477,5.5-5.521c0-1.269-0.447-2.424-1.166-3.357
	c1.223-1.103,1.925-2.653,1.925-4.31c0-3.206-2.608-5.814-5.814-5.814c-2.484,0-4.712,1.624-5.5,3.965
	c-2.554,0.026-4.718,1.807-5.279,4.26c-0.543-0.176-1.101-0.265-1.665-0.265c-3.033,0-5.5,2.477-5.5,5.521
	C4.121,23.523,6.588,26,9.621,26z M22.065,7.999c2.655,0,4.814,2.16,4.814,4.814c0,1.375-0.585,2.663-1.603,3.576
	c-0.906-0.817-2.068-1.354-3.362-1.423c-0.571-2.029-2.268-3.541-4.314-3.914C18.318,9.24,20.091,7.999,22.065,7.999z M9.621,15.958
	c0.63,0,1.252,0.137,1.849,0.408c0.146,0.065,0.314,0.058,0.454-0.021c0.139-0.079,0.232-0.22,0.25-0.38
	c0.252-2.284,2.165-4.007,4.448-4.007c2.135,0,3.99,1.518,4.41,3.608c0.047,0.234,0.252,0.401,0.49,0.401
	c0.043,0.003,0.082-0.004,0.1-0.01c2.481,0,4.5,2.028,4.5,4.521S24.102,25,21.621,25h-12c-2.481,0-4.5-2.028-4.5-4.521
	S7.139,15.958,9.621,15.958z"/>
</svg>
