<?xml version="1.0" encoding="iso-8859-1"?>
<!-- Generator: Adobe Illustrator 17.1.0, SVG Export Plug-In . SVG Version: 6.00 Build 0)  -->
<!DOCTYPE svg PUBLIC "-//W3C//DTD SVG 1.1//EN" "http://www.w3.org/Graphics/SVG/1.1/DTD/svg11.dtd">
<svg version="1.1" id="Layer_1" xmlns="http://www.w3.org/2000/svg" xmlns:xlink="http://www.w3.org/1999/xlink" x="0px" y="0px"
	 viewBox="0 0 32 32" style="enable-background:new 0 0 32 32;" xml:space="preserve">
<path style="fill:#231F20;" d="M28.756,6.623l-6.782,6.782c-0.381-1.239-1.043-2.37-1.972-3.299
	c-1.066-1.067-2.413-1.807-3.895-2.14c-0.169-0.039-0.342,0.013-0.463,0.134c-0.121,0.121-0.172,0.296-0.134,0.463
	c0.532,2.361-0.168,4.788-1.872,6.492c-1.704,1.703-4.129,2.403-6.492,1.871c-0.168-0.04-0.343,0.013-0.463,0.134
	c-0.121,0.121-0.172,0.296-0.134,0.463c0.333,1.481,1.073,2.828,2.14,3.895c0.929,0.929,2.06,1.591,3.299,1.972L6.93,28.45
	c-0.195,0.195-0.195,0.512,0,0.707c0.098,0.098,0.226,0.146,0.354,0.146c0.128,0,0.256-0.049,0.353-0.146l5.635-5.635
	c0.005-0.004,0.009-0.009,0.013-0.013L29.463,7.33c0.195-0.195,0.195-0.512,0-0.707C29.268,6.428,28.952,6.428,28.756,6.623z
	 M9.396,20.712c-0.752-0.753-1.319-1.665-1.663-2.67c2.432,0.301,4.86-0.525,6.613-2.279c1.754-1.754,2.577-4.178,2.28-6.613
	c1.005,0.344,1.918,0.911,2.67,1.663c0.942,0.941,1.574,2.118,1.865,3.406l-8.357,8.357C11.514,22.286,10.337,21.653,9.396,20.712z"
	/>
</svg>
