<?xml version="1.0" encoding="iso-8859-1"?>
<!-- Generator: Adobe Illustrator 17.1.0, SVG Export Plug-In . SVG Version: 6.00 Build 0)  -->
<!DOCTYPE svg PUBLIC "-//W3C//DTD SVG 1.1//EN" "http://www.w3.org/Graphics/SVG/1.1/DTD/svg11.dtd">
<svg version="1.1" id="Layer_1" xmlns="http://www.w3.org/2000/svg" xmlns:xlink="http://www.w3.org/1999/xlink" x="0px" y="0px"
	 viewBox="0 0 32 32" style="enable-background:new 0 0 32 32;" xml:space="preserve">
<path style="fill:#231F20;" d="M17.667,14.588c0,0.276,0.224,0.5,0.5,0.5s0.5-0.224,0.5-0.5c0-4.538-3.691-8.229-8.229-8.229
	s-8.229,3.692-8.229,8.229c0,0.276,0.224,0.5,0.5,0.5c0.276,0,0.5-0.224,0.5-0.5c0-3.986,3.243-7.229,7.229-7.229
	C14.424,7.359,17.667,10.602,17.667,14.588z"/>
<path style="fill:#231F20;" d="M26.409,10.923c-0.276,0-0.5,0.224-0.5,0.5c0,0.276,0.224,0.5,0.5,0.5
	c1.162,0,2.182,1.132,2.182,2.423c0,1.202-0.994,2.654-2.227,2.654H14c-0.276,0-0.5,0.224-0.5,0.5S13.724,18,14,18h12.364
	c1.847,0,3.227-1.929,3.227-3.654C29.591,12.491,28.134,10.923,26.409,10.923z"/>
<path style="fill:#231F20;" d="M25.364,19H8c-0.276,0-0.5,0.224-0.5,0.5S7.724,20,8,20h17.364c1.187,0,2.227,1.13,2.227,2.419
	c0,1.199-0.933,2.541-2.182,2.541c-0.276,0-0.5,0.224-0.5,0.5c0,0.276,0.224,0.5,0.5,0.5c1.875,0,3.182-1.866,3.182-3.541
	C28.591,20.598,27.083,19,25.364,19z"/>
</svg>
