<?xml version="1.0" encoding="iso-8859-1"?>
<!-- Generator: Adobe Illustrator 17.1.0, SVG Export Plug-In . SVG Version: 6.00 Build 0)  -->
<!DOCTYPE svg PUBLIC "-//W3C//DTD SVG 1.1//EN" "http://www.w3.org/Graphics/SVG/1.1/DTD/svg11.dtd">
<svg version="1.1" id="Layer_1" xmlns="http://www.w3.org/2000/svg" xmlns:xlink="http://www.w3.org/1999/xlink" x="0px" y="0px"
	 viewBox="0 0 32 32" style="enable-background:new 0 0 32 32;" xml:space="preserve">
<path style="fill:#231F20;" d="M27.5,8.098c0-2.385-7.522-3.015-11.5-3.015S4.5,5.713,4.5,8.098c0,0.36,0.188,0.675,0.493,0.959
	l10.579,17.616c0.09,0.15,0.253,0.243,0.429,0.243s0.338-0.092,0.429-0.243L27.007,9.057C27.312,8.774,27.5,8.458,27.5,8.098z
	 M16,6.083c6.794,0,10.5,1.331,10.5,2.015c0,0.075-0.052,0.158-0.14,0.246c-0.055,0.029-0.102,0.069-0.144,0.119
	c-0.971,0.706-4.493,1.65-10.216,1.65c-5.724,0-9.245-0.944-10.216-1.65C5.743,8.413,5.695,8.374,5.641,8.344
	C5.552,8.257,5.5,8.173,5.5,8.098C5.5,7.415,9.206,6.083,16,6.083z M16,25.445L6.707,9.97c2.534,0.866,6.675,1.143,9.293,1.143
	s6.759-0.277,9.293-1.143L16,25.445z"/>
</svg>
