<?xml version="1.0" encoding="iso-8859-1"?>
<!-- Generator: Adobe Illustrator 17.1.0, SVG Export Plug-In . SVG Version: 6.00 Build 0)  -->
<!DOCTYPE svg PUBLIC "-//W3C//DTD SVG 1.1//EN" "http://www.w3.org/Graphics/SVG/1.1/DTD/svg11.dtd">
<svg version="1.1" id="Layer_1" xmlns="http://www.w3.org/2000/svg" xmlns:xlink="http://www.w3.org/1999/xlink" x="0px" y="0px"
	 viewBox="0 0 32 32" style="enable-background:new 0 0 32 32;" xml:space="preserve">
<path style="fill:#231F20;" d="M22.377,15.872c0-2.456-1.402-4.616-3.564-5.638c0.07-0.048,0.132-0.102,0.204-0.148
	c0.144-0.091,0.232-0.251,0.232-0.422s-0.088-0.331-0.232-0.422C17.734,8.429,16.259,8,14.75,8c-4.411,0-8,3.589-8,8s3.589,8,8,8
	c1.509,0,2.984-0.429,4.268-1.241c0.144-0.091,0.232-0.251,0.232-0.422c0-0.171-0.088-0.331-0.232-0.422
	c-0.149-0.095-0.284-0.204-0.425-0.308C20.858,20.634,22.377,18.397,22.377,15.872z M17.724,20.858
	C16.47,19.568,15.75,17.844,15.75,16c0-1.937,0.801-3.738,2.174-5.045c2.072,0.754,3.453,2.687,3.453,4.917
	C21.377,18.164,19.884,20.167,17.724,20.858z"/>
<path style="fill:#231F20;" d="M27,16h-3c-0.276,0-0.5,0.224-0.5,0.5S23.724,17,24,17h3c0.276,0,0.5-0.224,0.5-0.5S27.276,16,27,16z
	"/>
<path style="fill:#231F20;" d="M22.571,10.264l2.168-2.168c0.195-0.195,0.195-0.512,0-0.707c-0.195-0.195-0.512-0.195-0.707,0
	l-2.168,2.168c-0.195,0.195-0.195,0.512,0,0.707c0.098,0.098,0.226,0.147,0.354,0.147C22.346,10.41,22.474,10.361,22.571,10.264z"/>
<path style="fill:#231F20;" d="M22.571,21.481c-0.195-0.195-0.512-0.195-0.707,0c-0.195,0.195-0.195,0.512,0,0.707l2.168,2.168
	c0.098,0.098,0.226,0.146,0.354,0.146c0.128,0,0.256-0.049,0.354-0.146c0.195-0.195,0.195-0.512,0-0.707L22.571,21.481z"/>
</svg>
