<?xml version="1.0" encoding="iso-8859-1"?>
<!-- Generator: Adobe Illustrator 17.1.0, SVG Export Plug-In . SVG Version: 6.00 Build 0)  -->
<!DOCTYPE svg PUBLIC "-//W3C//DTD SVG 1.1//EN" "http://www.w3.org/Graphics/SVG/1.1/DTD/svg11.dtd">
<svg version="1.1" id="Layer_1" xmlns="http://www.w3.org/2000/svg" xmlns:xlink="http://www.w3.org/1999/xlink" x="0px" y="0px"
	 viewBox="0 0 32 32" style="enable-background:new 0 0 32 32;" xml:space="preserve">
<path style="fill:#231F20;" d="M15.833,8c-4.411,0-8,3.589-8,8s3.589,8,8,8c4.411,0,8-3.589,8-8S20.244,8,15.833,8z M15.833,23
	c-3.859,0-7-3.14-7-7s3.141-7,7-7c3.859,0,7,3.14,7,7S19.692,23,15.833,23z"/>
<path style="fill:#231F20;" d="M15,1v4c0,0.276,0.224,0.5,0.5,0.5C15.776,5.5,16,5.276,16,5V1c0-0.276-0.224-0.5-0.5-0.5
	C15.224,0.5,15,0.724,15,1z"/>
<path style="fill:#231F20;" d="M15.5,26.5c-0.276,0-0.5,0.224-0.5,0.5v4c0,0.276,0.224,0.5,0.5,0.5c0.276,0,0.5-0.224,0.5-0.5v-4
	C16,26.724,15.776,26.5,15.5,26.5z"/>
<path style="fill:#231F20;" d="M5.5,16.5C5.5,16.224,5.276,16,5,16H1c-0.276,0-0.5,0.224-0.5,0.5S0.724,17,1,17h4
	C5.276,17,5.5,16.776,5.5,16.5z"/>
<path style="fill:#231F20;" d="M31,16h-4c-0.276,0-0.5,0.224-0.5,0.5S26.724,17,27,17h4c0.276,0,0.5-0.224,0.5-0.5S31.276,16,31,16z
	"/>
<path style="fill:#231F20;" d="M7.868,23.425L5.04,26.253c-0.195,0.195-0.195,0.512,0,0.707c0.098,0.098,0.226,0.146,0.354,0.146
	c0.128,0,0.256-0.049,0.354-0.146l2.828-2.828c0.195-0.195,0.195-0.512,0-0.707C8.38,23.229,8.063,23.229,7.868,23.425z"/>
<path style="fill:#231F20;" d="M26.253,5.04l-2.828,2.828c-0.195,0.195-0.195,0.512,0,0.707c0.098,0.098,0.226,0.146,0.354,0.146
	c0.128,0,0.256-0.049,0.354-0.146l2.828-2.828c0.195-0.195,0.195-0.512,0-0.707C26.765,4.845,26.448,4.845,26.253,5.04z"/>
<path style="fill:#231F20;" d="M24.132,23.425c-0.195-0.195-0.512-0.195-0.707,0c-0.195,0.195-0.195,0.512,0,0.707l2.828,2.828
	c0.098,0.098,0.226,0.146,0.354,0.146c0.128,0,0.256-0.049,0.354-0.146c0.195-0.195,0.195-0.512,0-0.707L24.132,23.425z"/>
<path style="fill:#231F20;" d="M5.04,5.04c-0.195,0.195-0.195,0.512,0,0.707l2.828,2.828c0.098,0.098,0.226,0.146,0.353,0.146
	c0.128,0,0.256-0.049,0.354-0.146c0.195-0.195,0.195-0.512,0-0.707L5.747,5.04C5.552,4.845,5.235,4.845,5.04,5.04z"/>
<path style="fill:#231F20;" d="M15.833,11.733c-2.353,0-4.267,1.914-4.267,4.267s1.914,4.267,4.267,4.267
	c2.352,0,4.267-1.914,4.267-4.267S18.185,11.733,15.833,11.733z"/>
</svg>
