<?xml version="1.0" encoding="iso-8859-1"?>
<!-- Generator: Adobe Illustrator 17.1.0, SVG Export Plug-In . SVG Version: 6.00 Build 0)  -->
<!DOCTYPE svg PUBLIC "-//W3C//DTD SVG 1.1//EN" "http://www.w3.org/Graphics/SVG/1.1/DTD/svg11.dtd">
<svg version="1.1" id="Layer_1" xmlns="http://www.w3.org/2000/svg" xmlns:xlink="http://www.w3.org/1999/xlink" x="0px" y="0px"
	 viewBox="0 0 32 32" style="enable-background:new 0 0 32 32;" xml:space="preserve">
<path style="fill:#231F20;" d="M9.5,12.5c0,0.276,0.224,0.5,0.5,0.5h12c0.276,0,0.5-0.224,0.5-0.5S22.276,12,22,12H10
	C9.724,12,9.5,12.224,9.5,12.5z"/>
<path style="fill:#231F20;" d="M29.546,11.785c0-1.723-1.298-3.642-3.159-3.642c-0.276,0-0.5,0.224-0.5,0.5
	c0,0.276,0.224,0.5,0.5,0.5c1.216,0,2.159,1.42,2.159,2.642c0,1.222-0.999,2.215-2.228,2.215H12c-0.276,0-0.5,0.224-0.5,0.5
	S11.724,15,12,15h14.318C28.098,15,29.546,13.558,29.546,11.785z"/>
<path style="fill:#231F20;" d="M28.546,19.858c0-1.784-1.41-3.858-3.228-3.858H8c-0.276,0-0.5,0.224-0.5,0.5S7.724,17,8,17h17.318
	c1.179,0,2.228,1.598,2.228,2.858c0,1.28-0.969,2.321-2.159,2.321c-0.276,0-0.5,0.224-0.5,0.5s0.224,0.5,0.5,0.5
	C27.129,23.179,28.546,21.689,28.546,19.858z"/>
<path style="fill:#231F20;" d="M4.5,12.5C4.5,12.776,4.724,13,5,13h3c0.276,0,0.5-0.224,0.5-0.5S8.276,12,8,12H5
	C4.724,12,4.5,12.224,4.5,12.5z"/>
<path style="fill:#231F20;" d="M3,17h3c0.276,0,0.5-0.224,0.5-0.5S6.276,16,6,16H3c-0.276,0-0.5,0.224-0.5,0.5S2.724,17,3,17z"/>
<path style="fill:#231F20;" d="M7,15h3c0.276,0,0.5-0.224,0.5-0.5S10.276,14,10,14H7c-0.276,0-0.5,0.224-0.5,0.5S6.724,15,7,15z"/>
</svg>
