<?xml version="1.0" encoding="iso-8859-1"?>
<!-- Generator: Adobe Illustrator 17.1.0, SVG Export Plug-In . SVG Version: 6.00 Build 0)  -->
<!DOCTYPE svg PUBLIC "-//W3C//DTD SVG 1.1//EN" "http://www.w3.org/Graphics/SVG/1.1/DTD/svg11.dtd">
<svg version="1.1" id="Layer_1" xmlns="http://www.w3.org/2000/svg" xmlns:xlink="http://www.w3.org/1999/xlink" x="0px" y="0px"
	 viewBox="0 0 32 32" style="enable-background:new 0 0 32 32;" xml:space="preserve">
<path style="fill:#231F20;" d="M11.809,23.57L6.93,28.45c-0.195,0.195-0.195,0.512,0,0.707c0.098,0.098,0.226,0.146,0.353,0.146
	s0.256-0.049,0.353-0.146L29.464,7.33c0.195-0.195,0.195-0.512,0-0.707c-0.195-0.195-0.512-0.195-0.707,0l-5.66,5.66
	c-1.475-1.343-3.365-2.086-5.373-2.086c-4.411,0-8,3.589-8,8C9.724,20.211,10.466,22.096,11.809,23.57z M17.724,11.197
	c1.741,0,3.38,0.639,4.666,1.793l-9.874,9.874c-1.155-1.285-1.792-2.922-1.792-4.667C10.724,14.337,13.864,11.197,17.724,11.197z"/>
<path style="fill:#231F20;" d="M17.5,7.5C17.776,7.5,18,7.276,18,7V3c0-0.276-0.224-0.5-0.5-0.5C17.224,2.5,17,2.724,17,3v4
	C17,7.276,17.224,7.5,17.5,7.5z"/>
<path style="fill:#231F20;" d="M3,19h4c0.276,0,0.5-0.224,0.5-0.5S7.276,18,7,18H3c-0.276,0-0.5,0.224-0.5,0.5S2.724,19,3,19z"/>
<path style="fill:#231F20;" d="M9.759,10.772c0.098,0.098,0.226,0.146,0.353,0.146s0.256-0.049,0.354-0.146
	c0.195-0.195,0.195-0.512,0-0.707L7.637,7.237c-0.195-0.195-0.512-0.195-0.707,0c-0.195,0.195-0.195,0.512,0,0.707L9.759,10.772z"/>
</svg>
