<?xml version="1.0" encoding="iso-8859-1"?>
<!-- Generator: Adobe Illustrator 17.1.0, SVG Export Plug-In . SVG Version: 6.00 Build 0)  -->
<!DOCTYPE svg PUBLIC "-//W3C//DTD SVG 1.1//EN" "http://www.w3.org/Graphics/SVG/1.1/DTD/svg11.dtd">
<svg version="1.1" id="Layer_1" xmlns="http://www.w3.org/2000/svg" xmlns:xlink="http://www.w3.org/1999/xlink" x="0px" y="0px"
	 viewBox="0 0 32 32" style="enable-background:new 0 0 32 32;" xml:space="preserve">
<circle style="fill:#231F20;" cx="18.996" cy="12.385" r="2.117"/>
<path style="fill:#231F20;" d="M16.176,15.217c-0.571-0.57-1.67-0.321-3.35,0.75c-0.847-0.444-1.809-0.699-2.83-0.699
	c-3.373,0-6.117,2.744-6.117,6.117c0,1.021,0.255,1.982,0.699,2.829c-1.076,1.684-1.331,2.79-0.76,3.361
	c0.199,0.199,0.462,0.299,0.791,0.299c0.6,0,1.42-0.33,2.477-0.994c0.032-0.02,0.068-0.048,0.1-0.068
	c0.843,0.438,1.797,0.69,2.811,0.69c3.373,0,6.117-2.744,6.117-6.117c0-1.014-0.252-1.969-0.69-2.812
	C16.335,17.145,16.809,15.85,16.176,15.217z M9.996,16.268c1.765,0,3.324,0.899,4.244,2.263c-0.736,1.067-1.797,2.375-3.266,3.844
	c-1.462,1.462-2.765,2.52-3.828,3.257c-1.366-0.92-2.268-2.48-2.268-4.247C4.879,18.563,7.175,16.268,9.996,16.268z M4.532,26.878
	c-0.052-0.101-0.009-0.622,0.646-1.737c0.313,0.4,0.673,0.759,1.074,1.071C5.349,26.749,4.725,26.971,4.532,26.878z M15.113,21.385
	c0,2.821-2.296,5.117-5.117,5.117c-0.649,0-1.265-0.134-1.837-0.355c1.118-0.82,2.335-1.877,3.523-3.065
	c0.959-0.959,2.129-2.256,3.075-3.54C14.979,20.115,15.113,20.733,15.113,21.385z M14.818,17.634
	c-0.31-0.398-0.667-0.755-1.064-1.066c1.117-0.655,1.626-0.686,1.707-0.655C15.562,16.112,15.347,16.735,14.818,17.634z"/>
<path style="fill:#231F20;" d="M24.103,6.024c-0.195-0.195-0.512-0.195-0.707,0l-2.497,2.497c-0.195,0.195-0.195,0.512,0,0.707
	c0.098,0.098,0.226,0.147,0.354,0.147c0.128,0,0.256-0.049,0.354-0.147l2.497-2.497C24.299,6.536,24.299,6.219,24.103,6.024z"/>
<path style="fill:#231F20;" d="M28.082,4.276l-6.185,6.247c-0.194,0.196-0.192,0.513,0.004,0.707
	c0.098,0.096,0.225,0.145,0.351,0.145c0.129,0,0.258-0.049,0.355-0.148l6.185-6.247c0.194-0.196,0.192-0.513-0.004-0.707
	C28.593,4.078,28.276,4.079,28.082,4.276z"/>
</svg>
