<?xml version="1.0" encoding="iso-8859-1"?>
<!-- Generator: Adobe Illustrator 17.1.0, SVG Export Plug-In . SVG Version: 6.00 Build 0)  -->
<!DOCTYPE svg PUBLIC "-//W3C//DTD SVG 1.1//EN" "http://www.w3.org/Graphics/SVG/1.1/DTD/svg11.dtd">
<svg version="1.1" id="Layer_1" xmlns="http://www.w3.org/2000/svg" xmlns:xlink="http://www.w3.org/1999/xlink" x="0px" y="0px"
	 viewBox="0 0 32 32" style="enable-background:new 0 0 32 32;" xml:space="preserve">
<path style="fill:#231F20;" d="M15.5,17.5c0-0.276-0.224-0.5-0.5-0.5H3c-0.276,0-0.5,0.224-0.5,0.5S2.724,18,3,18h12
	C15.276,18,15.5,17.776,15.5,17.5z"/>
<path style="fill:#231F20;" d="M23.895,10c-0.276,0-0.5,0.224-0.5,0.5s0.224,0.5,0.5,0.5c2.388,0,4.563,2.383,4.563,5
	c0,2.36-1.925,5-4.5,5H12c-0.276,0-0.5,0.224-0.5,0.5S11.724,22,12,22h11.958c2.93,0,5.5-2.804,5.5-6
	C29.458,12.86,26.807,10,23.895,10z"/>
<path style="fill:#231F20;" d="M19.405,20c1.817,0,3.228-2.016,3.228-3.75c0-1.83-1.467-3.375-3.203-3.375
	c-0.276,0-0.5,0.224-0.5,0.5s0.224,0.5,0.5,0.5c1.194,0,2.203,1.087,2.203,2.375c0,1.238-1.028,2.75-2.228,2.75H7
	c-0.276,0-0.5,0.224-0.5,0.5S6.724,20,7,20H19.405z"/>
</svg>
