<?xml version="1.0" encoding="iso-8859-1"?>
<!-- Generator: Adobe Illustrator 17.1.0, SVG Export Plug-In . SVG Version: 6.00 Build 0)  -->
<!DOCTYPE svg PUBLIC "-//W3C//DTD SVG 1.1//EN" "http://www.w3.org/Graphics/SVG/1.1/DTD/svg11.dtd">
<svg version="1.1" id="Layer_1" xmlns="http://www.w3.org/2000/svg" xmlns:xlink="http://www.w3.org/1999/xlink" x="0px" y="0px"
	 viewBox="0 0 32 32" style="enable-background:new 0 0 32 32;" xml:space="preserve">
<path style="fill:#231F20;" d="M8.5,23h12c2.981,0,5.5-2.576,5.5-5.625c0-0.447-0.07-0.877-0.172-1.297
	C27.666,15.592,29,13.932,29,12c0-2.212-1.698-4.035-3.932-4.226C24.535,6,22.883,4.75,21,4.75c-1.958,0-3.615,1.345-4.087,3.204
	C16.458,7.832,15.988,7.75,15.5,7.75c-2.579,0-4.771,1.794-5.335,4.265C9.622,11.839,9.064,11.75,8.5,11.75
	c-2.981,0-5.5,2.576-5.5,5.625S5.519,23,8.5,23z M21,5.75c1.542,0,2.881,1.096,3.185,2.606c0.048,0.236,0.306,0.393,0.565,0.394
	C26.542,8.75,28,10.208,28,12c0,1.497-1.052,2.781-2.489,3.129c-0.829-1.878-2.636-3.252-4.718-3.371
	C20.358,10.21,19.26,8.972,17.859,8.3C18.183,6.827,19.47,5.75,21,5.75z M8.5,12.75c0.63,0,1.252,0.137,1.85,0.408
	c0.146,0.066,0.314,0.058,0.454-0.021c0.139-0.08,0.232-0.221,0.249-0.38c0.252-2.284,2.163-4.007,4.447-4.007
	c2.135,0,3.989,1.518,4.41,3.609c0.048,0.239,0.253,0.402,0.505,0.401c0.036-0.002,0.071-0.005,0.085-0.01
	c2.439,0,4.5,2.118,4.5,4.625S22.939,22,20.5,22h-12C6.06,22,4,19.882,4,17.375S6.06,12.75,8.5,12.75z"/>
<path style="fill:#231F20;" d="M8,25h12c0.276,0,0.5-0.224,0.5-0.5S20.276,24,20,24H8c-0.276,0-0.5,0.224-0.5,0.5S7.724,25,8,25z"/>
<path style="fill:#231F20;" d="M8,27h12c0.276,0,0.5-0.224,0.5-0.5S20.276,26,20,26H8c-0.276,0-0.5,0.224-0.5,0.5S7.724,27,8,27z"/>
</svg>
